<?xml version="1.0" encoding="utf-8"?>
<!-- Generator: Adobe Illustrator 24.2.3, SVG Export Plug-In . SVG Version: 6.00 Build 0)  -->
<svg version="1.1" id="Layer_1" xmlns="http://www.w3.org/2000/svg" xmlns:xlink="http://www.w3.org/1999/xlink" x="0px" y="0px"
	 viewBox="0 0 18 15.5" style="enable-background:new 0 0 18 15.5;" xml:space="preserve">
<path d="M15.1,2.4h-1.6v-1c0-0.8-0.6-1.4-1.4-1.4c0,0,0,0,0,0H5.9C5.1,0,4.5,0.6,4.5,1.4v1H2.9C1.3,2.4,0,3.7,0,5.3v7.3
	c0,1.6,1.3,2.9,2.9,2.9h12.2c1.6,0,2.9-1.3,2.9-2.9V5.3C18,3.7,16.7,2.4,15.1,2.4z M5.7,1.4c0-0.1,0.1-0.2,0.2-0.2c0,0,0,0,0,0h6.2
	c0.1,0,0.2,0.1,0.2,0.2v1H5.7V1.4z M1.2,5.3c0-1,0.8-1.7,1.7-1.7h12.2c1,0,1.7,0.8,1.7,1.7v0.5c0,1.4-1.1,2.5-2.5,2.5h-3.4V7.7
	c0-0.8-0.6-1.4-1.4-1.4H8.4c-0.8,0-1.4,0.6-1.4,1.4v0.7H3.7c-1.4,0-2.5-1.1-2.5-2.5V5.3z M9.8,10c0,0.1-0.1,0.2-0.2,0.2H8.4
	c-0.1,0-0.2-0.1-0.2-0.2V7.7c0-0.1,0.1-0.2,0.2-0.2h1.2c0.1,0,0.2,0.1,0.2,0.2V10z M15.1,14.4H2.9c-1,0-1.7-0.8-1.7-1.7V8.5
	c0.7,0.6,1.6,1,2.5,1h3.4V10c0,0.8,0.6,1.4,1.4,1.4h1.2c0.8,0,1.4-0.6,1.4-1.4V9.5h3.4c0.9,0,1.8-0.4,2.5-1v4.1
	C16.8,13.6,16.1,14.4,15.1,14.4C15.1,14.4,15.1,14.4,15.1,14.4z"/>
</svg>
